<svg xmlns="http://www.w3.org/2000/svg" width="1322.000000pt" height="691.000000pt" version="1.0" viewBox="0 0 1322.000000 691.000000"><path d="M211.1 1.1C151.5 5.6 94.9 34.3 56.2 79.5c-59.9 69.9-72.3 167.8-31.6 249.4 12.6 25.3 26.6 44.4 46.3 63.3 35.6 34.1 78.5 54.8 128.6 62 13.7 2 48.5 1.7 62-.6 25.8-4.2 46.1-10.6 67.5-21.2 23-11.4 39.2-22.8 56.9-39.9 35.5-34.3 57.5-74.9 66.7-123.4 3.6-18.6 4.4-49.4 2-68.9-8.5-66.2-44.7-124.8-100.1-161.7C321.7 16.6 284.7 4.1 244 1c-14.8-1.1-17.6-1.1-32.9.1zm48.2 106.3c-.4.7-4.4 7-8.8 14l-7.9 12.6H126.1l8.7-14 8.7-13.9 58.3-.1c48.9 0 58.2.2 57.5 1.4zm70.6 69.9c24.3 38.4 44.1 70 44.1 70.3 0 .2-7.5.3-16.7.2l-16.7-.3-8.8-14-8.8-14-26.4-.5-26.3-.5 8.6-13.7 8.6-13.8h17.4l-10.1-16c-5.5-8.8-10.4-15.8-10.7-15.5-.3.4-13 20.3-28.2 44.3l-27.5 43.7-73.7.3c-40.5.1-73.7 0-73.7-.2 0-.3 7.9-12.9 17.5-28.1 9.6-15.2 17.5-27.8 17.5-28 0-.3-5.8-.5-13-.5H90.1l8.7-14 8.7-13.9 54.8-.1c30.2 0 54.7.4 54.5.8-.1.4-4 6.7-8.6 14l-8.4 13.2h-49.6l-8.3 13.2c-4.6 7.2-8.8 13.7-9.2 14.5-.7 1.1 6.2 1.3 39.2 1.3h39.9l32.8-51.8c18-28.4 34.3-54.1 36.2-57.1 1.9-2.9 3.8-4.9 4.2-4.5.5.5 20.7 32.3 44.9 70.7zM113 264.5c3.9 2 6 6.3 6 12v4.5h-4.4c-4.1 0-4.5-.2-5.1-3-.9-4.3-4-6-10.7-6-7.4 0-9.8 2-9.8 8.4 0 6.7 1.4 7.6 12.3 7.6 11.4 0 14.6 1.6 17.2 8.4 2.3 5.9 1.7 17.8-1 21.9-3.1 4.7-6.3 5.7-18.7 5.7-9.5 0-11.8-.3-14.2-1.9-4-2.7-5.5-5.7-5.6-11.4V306h4.5c4.3 0 4.6.2 5.2 3 .8 4.4 3.7 6 10.6 6 8.9 0 9.7-.7 9.7-9.1 0-6.5-.1-7-2.6-7.9-1.4-.6-6.3-1-11-1C82 297 79 293.8 79 279.8c0-9.3 1-11.6 6.4-14.9 4.1-2.5 23-2.8 27.6-.4zm53 0c5.9 3.1 7 5.7 7 17.2 0 16.7-1.7 18.5-18.5 19.3l-11 .5-.3 11.2-.3 11.3H133v-61h15c11.4 0 15.8.4 18 1.5zm55.6 2.7 3.4 3.8v45l-3.4 3.8-3.4 3.7-11.2.3c-12.5.4-15.6-.4-19.5-5-2.5-2.9-2.5-3-2.5-25.2 0-24.4.1-24.8 6.4-28.7 2.7-1.7 4.6-1.9 14.9-1.7l11.9.3 3.4 3.7zm51.2-2.2c4.5 2.7 6.2 7.4 6.2 16.5 0 8.4-1.3 12.1-5.6 15.4l-2.7 2.1 4.9 11.7c2.7 6.4 5.1 12.1 5.3 12.5.1.5-2.3.8-5.4.6l-5.7-.3-4.7-11.5-4.8-11.5-5.6-.3-5.7-.3V324h-10v-61h15.3c13.5 0 15.6.2 18.5 2zm55.2 2.5v4.4l-7.7.3-7.8.3-.3 25.7-.2 25.8h-10l-.2-25.8-.3-25.7-7.7-.3-7.8-.3V263h42v4.5zm43.1-2.2c4.2 2.8 5.9 6 5.9 11.5v4.3l-4.7-.3c-4.2-.3-4.7-.6-5.5-3.3-1.1-4.3-3.4-5.5-10.1-5.5-8.6 0-9.7.9-9.7 7.9 0 3.5.5 6.3 1.3 6.9.6.5 5.8 1.2 11.5 1.4l10.4.3 3.4 3.7C377 296 377 296 377 306s0 10-3.4 13.8l-3.4 3.7-12.4.3c-11 .2-12.7.1-15.6-1.8-3.8-2.3-6.2-7.2-6.2-12.5V306h4.9c4.8 0 4.9.1 5.5 3.5.9 4.4 3 5.5 10.5 5.5 8 0 10.1-1.9 10.1-9 0-7.8-1.8-9-13.4-9-10.5 0-13.6-1.5-16.2-7.6-1.9-4.6-1.8-14.8.3-19.1 2.8-6 6.2-7.3 18.9-7.3 9.9 0 11.5.2 14.5 2.3zm12.2.4c-.7.2-2.1.2-3 0-1-.3-.4-.5 1.2-.5 1.7 0 2.4.2 1.8.5zm4.7 1.8c1.4 1.9 1.4 1.9-.2.6-1-.7-1.8-1.8-1.8-2.4 0-.6.1-.8.3-.6.1.2.9 1.3 1.7 2.4zm3.9.7c-.1 3.1-.1 3.1-.8.8-.5-1.4-.6-2.8-.4-3.3.9-1.5 1.3-.6 1.2 2.5z"/><path d="M143.7 272.7c-.4.3-.7 4.8-.7 10v9.3h8.3c10.5 0 11.7-1 11.7-9.8 0-8.7-1.6-10.2-11.3-10.2-4.1 0-7.7.3-8 .7zM199 272.7c-3.6 1.3-4 3.4-4 21 0 20.8.2 21.3 10 21.3s10-.4 10-21.5c0-16.2-.2-17.7-2-19.5-1.5-1.5-3.3-2-7.2-1.9-2.9 0-6 .3-6.8.6zM249.5 273.2c-.3.8-.5 5-.3 9.4l.3 7.9 6.6.3c3.6.2 7.8-.2 9.2-.7 2.6-1 2.7-1.4 2.7-7.8 0-3.8-.5-7.5-1-8.3-1.3-2.1-16.7-2.8-17.5-.8zM734 27.7c-25.7 4-48.3 16.7-64.5 36.1-4.4 5.2-34 55.6-109.8 186.4L456 429.5l54.2.3c42.5.2 54.5-.1 55.4-1 .7-.7 19.8-33.4 42.5-72.6l41.2-71.2h189.2l26.8-46.5C880 213 892 191.6 892 191.1c0-.8-28.8-1.2-93.8-1.3l-93.8-.3 19.5-33.8 19.5-33.7h94.1c88.5 0 94.3-.1 95.7-1.8 1.7-2 53.8-91.6 53.8-92.6 0-.6-248.8-.6-253 .1zM1067.5 27.7c-6 .8-18.2 4.3-25.3 7.2-16.3 6.7-33.5 20.8-43.4 35.6-7.4 11.1-177.9 306.5-180 311.8-2.2 5.7-2.4 15.5-.3 22.2 2 6.9 7.8 14.8 13.8 18.9 10.1 6.9 4 6.6 137.2 6.4l119.9-.3 46.3-80c25.5-44 46.8-80.8 47.4-81.8.9-1.6-1.9-1.7-53.9-1.7h-54.8l-20 34.5-19.9 34.5h-39.8c-37.6 0-39.7-.1-38.8-1.8.5-.9 28.2-48.7 61.4-106.2l60.5-104.5 39.6-.3c21.8-.1 39.6 0 39.6.3s-9.2 16.5-20.5 36-20.8 36.2-21.1 37c-.6 1.3 5.5 1.5 54.1 1.3l54.6-.3 47.6-82c26.1-45.1 48.1-83.2 48.9-84.8l1.5-2.7-125.8.1c-69.2.1-127.1.4-128.8.6zM116 496.6c-8.9 2.4-15.6 6.2-21.6 12.2-4.7 4.8-12.7 18.1-49.5 81.7C20.8 632.3.8 668 .4 669.8c-1.5 7.6 2.4 15.3 9.6 18.9 4.4 2.3 4.6 2.3 52.8 2.3 54 0 57.3-.3 67.9-6.6 3.2-1.9 7.8-5.6 10.3-8.3 3-3.3 19.4-30.8 47.7-79.8 23.8-41.1 43.7-76.1 44.2-77.6 2.3-6.1.3-14.5-4.6-18.9-5.2-4.7-6.3-4.8-58-4.7-39.4 0-49.9.3-54.3 1.5zm56.8 45.2c-1.8 3.2-16.6 28.8-32.8 57l-29.5 51.1-26.3.1H57.8l2-3.3c1.1-1.7 15.4-26.4 31.7-54.7 16.3-28.3 30.3-52.5 31.1-53.8 1.4-2.2 1.6-2.2 27.5-2.2h26l-3.3 5.8zM297 496.1c-8.1 1.6-18.3 7.4-24.1 13.8-4.1 4.4-17.5 26.7-55.4 92.6-27.5 47.7-50.1 87.1-50.3 87.6-.2.5 10.8.9 26 .9h26.4l43.3-75 43.3-75h41l-2 3.2c-5.1 8.5-84.2 145.9-84.2 146.3 0 .3 11.8.5 26.3.5h26.3l48.7-84.4c26.8-46.4 49.5-86.3 50.4-88.6 3-7.6-1.1-17.1-9-20.9-4.2-2-5.6-2.1-53.3-2-26.9.1-50.9.5-53.4 1zM411.1 580.8c-52 90.1-51.7 89.6-49.7 97.7 1 4 7.3 10.3 11.4 11.5 2.3.6 25.9 1 62.8 1h59l13.2-22.8 13.1-22.7-46.6-.3c-38.6-.2-46.4-.5-46-1.6.3-.7 19.3-33.8 42.1-73.4 22.9-39.7 41.9-72.8 42.2-73.7.5-1.3-2.4-1.5-25.7-1.5l-26.4.1-49.4 85.7zM634.2 496.2C633.1 497.7 522 690 522 690.6c0 .2 11.9.4 26.3.4h26.4l55.6-96.3c30.6-52.9 55.9-97 56.2-98 .7-1.6-1-1.7-25.3-1.7-19.6 0-26.2.3-27 1.2zM741 496.1c-7.4 1.4-18 7.3-23.7 13.1-4.1 4.2-15.2 22.8-55.4 92.3-27.6 47.8-50.4 87.6-50.6 88.2-.4 1 5.2 1.3 25.8 1.3h26.4l42.4-73.6c23.4-40.4 43-74.2 43.5-75 .9-1.2 4.5-1.4 21.2-1.2l20 .3-42.8 74c-23.5 40.7-42.7 74.3-42.8 74.7 0 .5 11.8.8 26.3.8h26.2l38.5-66.7c67.4-116.9 61.2-105.6 61.2-111.1 0-7.8-5.2-15.2-12.3-17.2-4.2-1.2-97.6-1.1-103.9.1zM923 495.7c-10.7 1.8-23.5 9-29.2 16.5-3.3 4.3-87.5 149.8-89.6 154.8-3.4 8.2.9 18.4 9.4 22.1 4 1.8 7.3 1.9 63.9 1.7l59.7-.3 12.9-22.3c7.1-12.3 12.9-22.5 12.9-22.8 0-.2-21-.4-46.6-.4s-46.4-.4-46.2-.8c.2-.5 3.5-6.3 7.3-13l7-12.2h94.1l12.4-21.6c6.9-11.9 12.6-22.3 12.8-23 .3-1.2-7.5-1.4-46.2-1.4h-46.5l9.2-16 9.2-16h94.1l11.9-20.7c6.6-11.3 12.6-21.7 13.3-23l1.3-2.3-62.3.1c-34.3.1-63.4.4-64.8.6z"/></svg>